<mxfile host="app.diagrams.net" agent="Mozilla/5.0 (Windows NT 10.0; Win64; x64) AppleWebKit/537.36 (KHTML, like Gecko) Chrome/128.0.0.0 Safari/537.36 Edg/128.0.0.0" version="24.7.14">
  <diagram id="R2lEEEUBdFMjLlhIrx00" name="Page-1">
    <mxGraphModel dx="2498" dy="1875" grid="1" gridSize="10" guides="1" tooltips="1" connect="1" arrows="1" fold="1" page="1" pageScale="1" pageWidth="850" pageHeight="1100" math="0" shadow="0" extFonts="Permanent Marker^https://fonts.googleapis.com/css?family=Permanent+Marker">
      <root>
        <mxCell id="0" />
        <mxCell id="1" parent="0" />
        <mxCell id="v3inIk6XVJxVtLANKJhg-5" style="edgeStyle=orthogonalEdgeStyle;rounded=0;orthogonalLoop=1;jettySize=auto;html=1;exitX=1;exitY=0.5;exitDx=0;exitDy=0;entryX=0;entryY=0.5;entryDx=0;entryDy=0;double=1;shape=flexArrow;endWidth=14;endSize=4.53;width=6;" edge="1" parent="1" source="v3inIk6XVJxVtLANKJhg-1" target="v3inIk6XVJxVtLANKJhg-4">
          <mxGeometry relative="1" as="geometry" />
        </mxCell>
        <mxCell id="v3inIk6XVJxVtLANKJhg-1" value="Sales_Income" style="rounded=0;whiteSpace=wrap;html=1;" vertex="1" parent="1">
          <mxGeometry x="120" y="120" width="120" height="80" as="geometry" />
        </mxCell>
        <mxCell id="v3inIk6XVJxVtLANKJhg-6" style="edgeStyle=orthogonalEdgeStyle;rounded=0;orthogonalLoop=1;jettySize=auto;html=1;exitX=0;exitY=0.5;exitDx=0;exitDy=0;entryX=1;entryY=0.5;entryDx=0;entryDy=0;shape=flexArrow;width=6;endSize=4.67;endWidth=19;" edge="1" parent="1" source="v3inIk6XVJxVtLANKJhg-2" target="v3inIk6XVJxVtLANKJhg-4">
          <mxGeometry relative="1" as="geometry" />
        </mxCell>
        <mxCell id="v3inIk6XVJxVtLANKJhg-2" value="Service_income" style="rounded=0;whiteSpace=wrap;html=1;" vertex="1" parent="1">
          <mxGeometry x="560" y="120" width="120" height="80" as="geometry" />
        </mxCell>
        <mxCell id="v3inIk6XVJxVtLANKJhg-3" value="Total Income" style="rounded=0;whiteSpace=wrap;html=1;" vertex="1" parent="1">
          <mxGeometry x="340" y="280" width="120" height="80" as="geometry" />
        </mxCell>
        <mxCell id="v3inIk6XVJxVtLANKJhg-7" style="edgeStyle=orthogonalEdgeStyle;rounded=0;orthogonalLoop=1;jettySize=auto;html=1;exitX=0.5;exitY=1;exitDx=0;exitDy=0;shape=flexArrow;width=4;endSize=5.4;endWidth=15;" edge="1" parent="1" source="v3inIk6XVJxVtLANKJhg-4" target="v3inIk6XVJxVtLANKJhg-3">
          <mxGeometry relative="1" as="geometry" />
        </mxCell>
        <mxCell id="v3inIk6XVJxVtLANKJhg-4" value="Adds to" style="rhombus;whiteSpace=wrap;html=1;" vertex="1" parent="1">
          <mxGeometry x="360" y="120" width="80" height="80" as="geometry" />
        </mxCell>
        <mxCell id="v3inIk6XVJxVtLANKJhg-24" style="edgeStyle=orthogonalEdgeStyle;rounded=0;orthogonalLoop=1;jettySize=auto;html=1;exitX=1;exitY=0.5;exitDx=0;exitDy=0;entryX=0.5;entryY=0;entryDx=0;entryDy=0;endArrow=none;endFill=0;" edge="1" parent="1" source="v3inIk6XVJxVtLANKJhg-22" target="v3inIk6XVJxVtLANKJhg-1">
          <mxGeometry relative="1" as="geometry" />
        </mxCell>
        <mxCell id="v3inIk6XVJxVtLANKJhg-22" value="&lt;u&gt;Fiscal_Quarter&lt;/u&gt;" style="ellipse;whiteSpace=wrap;html=1;" vertex="1" parent="1">
          <mxGeometry x="-80" y="40" width="120" height="80" as="geometry" />
        </mxCell>
        <mxCell id="v3inIk6XVJxVtLANKJhg-25" style="edgeStyle=orthogonalEdgeStyle;rounded=0;orthogonalLoop=1;jettySize=auto;html=1;exitX=1;exitY=0.5;exitDx=0;exitDy=0;entryX=0.5;entryY=1;entryDx=0;entryDy=0;endArrow=none;endFill=0;" edge="1" parent="1" source="v3inIk6XVJxVtLANKJhg-23" target="v3inIk6XVJxVtLANKJhg-1">
          <mxGeometry relative="1" as="geometry" />
        </mxCell>
        <mxCell id="v3inIk6XVJxVtLANKJhg-23" value="Net_Sale" style="ellipse;whiteSpace=wrap;html=1;" vertex="1" parent="1">
          <mxGeometry x="-80" y="200" width="120" height="80" as="geometry" />
        </mxCell>
        <mxCell id="v3inIk6XVJxVtLANKJhg-28" style="edgeStyle=orthogonalEdgeStyle;rounded=0;orthogonalLoop=1;jettySize=auto;html=1;exitX=0.5;exitY=1;exitDx=0;exitDy=0;entryX=0.25;entryY=0;entryDx=0;entryDy=0;endArrow=none;endFill=0;" edge="1" parent="1" source="v3inIk6XVJxVtLANKJhg-26" target="v3inIk6XVJxVtLANKJhg-2">
          <mxGeometry relative="1" as="geometry" />
        </mxCell>
        <mxCell id="v3inIk6XVJxVtLANKJhg-26" value="&lt;u&gt;Fiscal_Qiuarter&lt;/u&gt;" style="ellipse;whiteSpace=wrap;html=1;" vertex="1" parent="1">
          <mxGeometry x="440" y="-80" width="120" height="80" as="geometry" />
        </mxCell>
        <mxCell id="v3inIk6XVJxVtLANKJhg-27" value="Net_Income" style="ellipse;whiteSpace=wrap;html=1;" vertex="1" parent="1">
          <mxGeometry x="680" y="-90" width="120" height="80" as="geometry" />
        </mxCell>
        <mxCell id="v3inIk6XVJxVtLANKJhg-29" style="edgeStyle=orthogonalEdgeStyle;rounded=0;orthogonalLoop=1;jettySize=auto;html=1;exitX=0.5;exitY=1;exitDx=0;exitDy=0;entryX=0.75;entryY=0;entryDx=0;entryDy=0;endArrow=none;endFill=0;" edge="1" parent="1" source="v3inIk6XVJxVtLANKJhg-27" target="v3inIk6XVJxVtLANKJhg-2">
          <mxGeometry relative="1" as="geometry" />
        </mxCell>
        <mxCell id="v3inIk6XVJxVtLANKJhg-32" style="edgeStyle=orthogonalEdgeStyle;rounded=0;orthogonalLoop=1;jettySize=auto;html=1;exitX=1;exitY=0.5;exitDx=0;exitDy=0;endArrow=none;endFill=0;" edge="1" parent="1" source="v3inIk6XVJxVtLANKJhg-30" target="v3inIk6XVJxVtLANKJhg-3">
          <mxGeometry relative="1" as="geometry" />
        </mxCell>
        <mxCell id="v3inIk6XVJxVtLANKJhg-30" value="&lt;u&gt;Fiscal_Quarter&lt;/u&gt;" style="ellipse;whiteSpace=wrap;html=1;" vertex="1" parent="1">
          <mxGeometry x="160" y="280" width="120" height="80" as="geometry" />
        </mxCell>
        <mxCell id="v3inIk6XVJxVtLANKJhg-33" style="edgeStyle=orthogonalEdgeStyle;rounded=0;orthogonalLoop=1;jettySize=auto;html=1;exitX=0;exitY=0.5;exitDx=0;exitDy=0;entryX=1;entryY=0.5;entryDx=0;entryDy=0;endArrow=none;endFill=0;" edge="1" parent="1" source="v3inIk6XVJxVtLANKJhg-31" target="v3inIk6XVJxVtLANKJhg-3">
          <mxGeometry relative="1" as="geometry" />
        </mxCell>
        <mxCell id="v3inIk6XVJxVtLANKJhg-31" value="Income" style="ellipse;whiteSpace=wrap;html=1;" vertex="1" parent="1">
          <mxGeometry x="520" y="280" width="120" height="80" as="geometry" />
        </mxCell>
        <mxCell id="v3inIk6XVJxVtLANKJhg-43" style="edgeStyle=orthogonalEdgeStyle;rounded=0;orthogonalLoop=1;jettySize=auto;html=1;exitX=1;exitY=0.5;exitDx=0;exitDy=0;entryX=0.25;entryY=1;entryDx=0;entryDy=0;endArrow=none;endFill=0;" edge="1" parent="1" source="v3inIk6XVJxVtLANKJhg-42" target="v3inIk6XVJxVtLANKJhg-3">
          <mxGeometry relative="1" as="geometry" />
        </mxCell>
        <mxCell id="v3inIk6XVJxVtLANKJhg-42" value="Tax_Amt" style="ellipse;whiteSpace=wrap;html=1;align=center;" vertex="1" parent="1">
          <mxGeometry x="160" y="400" width="120" height="80" as="geometry" />
        </mxCell>
        <mxCell id="v3inIk6XVJxVtLANKJhg-45" style="edgeStyle=orthogonalEdgeStyle;rounded=0;orthogonalLoop=1;jettySize=auto;html=1;exitX=0.5;exitY=0;exitDx=0;exitDy=0;endArrow=none;endFill=0;" edge="1" parent="1" source="v3inIk6XVJxVtLANKJhg-44" target="v3inIk6XVJxVtLANKJhg-3">
          <mxGeometry relative="1" as="geometry" />
        </mxCell>
        <mxCell id="v3inIk6XVJxVtLANKJhg-49" style="edgeStyle=orthogonalEdgeStyle;rounded=0;orthogonalLoop=1;jettySize=auto;html=1;exitX=1;exitY=0.5;exitDx=0;exitDy=0;entryX=0.5;entryY=0;entryDx=0;entryDy=0;" edge="1" parent="1" source="v3inIk6XVJxVtLANKJhg-44" target="v3inIk6XVJxVtLANKJhg-47">
          <mxGeometry relative="1" as="geometry" />
        </mxCell>
        <mxCell id="v3inIk6XVJxVtLANKJhg-44" value="Working_Cost" style="ellipse;whiteSpace=wrap;html=1;align=center;" vertex="1" parent="1">
          <mxGeometry x="340" y="520" width="120" height="80" as="geometry" />
        </mxCell>
        <mxCell id="v3inIk6XVJxVtLANKJhg-48" style="edgeStyle=orthogonalEdgeStyle;rounded=0;orthogonalLoop=1;jettySize=auto;html=1;exitX=0;exitY=0.5;exitDx=0;exitDy=0;entryX=0.5;entryY=0;entryDx=0;entryDy=0;" edge="1" parent="1" source="v3inIk6XVJxVtLANKJhg-44" target="v3inIk6XVJxVtLANKJhg-46">
          <mxGeometry relative="1" as="geometry" />
        </mxCell>
        <mxCell id="v3inIk6XVJxVtLANKJhg-46" value="Production_Cost" style="ellipse;whiteSpace=wrap;html=1;align=center;" vertex="1" parent="1">
          <mxGeometry x="240" y="640" width="120" height="80" as="geometry" />
        </mxCell>
        <mxCell id="v3inIk6XVJxVtLANKJhg-47" value="Salary_Paid" style="ellipse;whiteSpace=wrap;html=1;align=center;" vertex="1" parent="1">
          <mxGeometry x="440" y="640" width="120" height="80" as="geometry" />
        </mxCell>
        <mxCell id="v3inIk6XVJxVtLANKJhg-51" style="edgeStyle=orthogonalEdgeStyle;rounded=0;orthogonalLoop=1;jettySize=auto;html=1;exitX=0;exitY=0.5;exitDx=0;exitDy=0;entryX=0.75;entryY=1;entryDx=0;entryDy=0;endArrow=none;endFill=0;" edge="1" parent="1" source="v3inIk6XVJxVtLANKJhg-50" target="v3inIk6XVJxVtLANKJhg-3">
          <mxGeometry relative="1" as="geometry" />
        </mxCell>
        <mxCell id="v3inIk6XVJxVtLANKJhg-50" value="Savings" style="ellipse;whiteSpace=wrap;html=1;align=center;dashed=1;dashPattern=8 8;" vertex="1" parent="1">
          <mxGeometry x="520" y="400" width="120" height="80" as="geometry" />
        </mxCell>
      </root>
    </mxGraphModel>
  </diagram>
</mxfile>
